HIERARCHY
ROOT ROOT
{
	OFFSET 0.000000 56.020000 -5.659234
	CHANNELS 6 Xposition Yposition Zposition Xrotation Yrotation Zrotation 
	JOINT C_spine0001_bind_JNT
	{
		OFFSET 0.000000 1.618999 0.000000
		CHANNELS 3 Xrotation Yrotation Zrotation
		JOINT C_spine0002_bind_JNT
		{
			OFFSET 0.000000 4.942001 0.000001
			CHANNELS 3 Xrotation Yrotation Zrotation
			JOINT C_spine0003_bind_JNT
			{
				OFFSET 0.000000 4.942001 -0.000000
				CHANNELS 3 Xrotation Yrotation Zrotation
				JOINT C_neck0001_bind_JNT
				{
					OFFSET 0.000000 17.026009 -0.000000
					CHANNELS 3 Xrotation Yrotation Zrotation
					JOINT C_neck0002_bind_JNT
					{
						OFFSET 0.000000 3.249985 0.000000
						CHANNELS 3 Xrotation Yrotation Zrotation
						JOINT C_head_bind_JNT
						{
							OFFSET 0.000000 5.278008 0.000000
							CHANNELS 3 Xrotation Yrotation Zrotation
							End Site
							{
								OFFSET 0.000000 0.000000 0.000000
							}
						}
					}
				}
				JOINT L_clavicle_bind_JNT
				{
					OFFSET 4.590000 12.067001 0.834000
					CHANNELS 3 Xrotation Yrotation Zrotation
					JOINT L_armUpper0001_bind_JNT
					{
						OFFSET 7.812635 0.512001 -3.452945
						CHANNELS 3 Xrotation Yrotation Zrotation
						JOINT L_armLower0001_bind_JNT
						{
							OFFSET 15.265892 -6.552116 -0.058157
							CHANNELS 3 Xrotation Yrotation Zrotation
							JOINT L_hand0001_bind_JNT
							{
								OFFSET 14.747667 -6.369995 5.049225
								CHANNELS 3 Xrotation Yrotation Zrotation
								End Site
								{
									OFFSET 0.000000 0.000000 0.000000
								}
							}
						}
					}
				}
				JOINT R_clavicle_bind_JNT
				{
					OFFSET -4.590000 12.067001 0.834000
					CHANNELS 3 Xrotation Yrotation Zrotation
					JOINT R_armUpper0001_bind_JNT
					{
						OFFSET -7.812635 0.512001 -3.452945
						CHANNELS 3 Xrotation Yrotation Zrotation
						JOINT R_armLower0001_bind_JNT
						{
							OFFSET -15.265890 -6.552124 -0.058160
							CHANNELS 3 Xrotation Yrotation Zrotation
							JOINT R_hand0001_bind_JNT
							{
								OFFSET -14.746784 -6.369629 5.048937
								CHANNELS 3 Xrotation Yrotation Zrotation
								End Site
								{
									OFFSET 0.000000 0.000000 0.000000
								}
							}
						}
					}
				}
			}
		}
	}
	JOINT C_pelvis0001_bind_JNT
	{
		OFFSET -0.000000 0.000000 0.000000
		CHANNELS 3 Xrotation Yrotation Zrotation
		JOINT L_legUpper0001_bind_JNT
		{
			OFFSET 6.599999 -6.027000 0.539000
			CHANNELS 3 Xrotation Yrotation Zrotation
			JOINT L_legLower0001_bind_JNT
			{
				OFFSET -0.140713 -19.187443 0.040261
				CHANNELS 3 Xrotation Yrotation Zrotation
				JOINT L_foot0001_bind_JNT
				{
					OFFSET -0.132215 -18.028637 -1.138370
					CHANNELS 3 Xrotation Yrotation Zrotation
					JOINT L_foot0002_bind_JNT
					{
						OFFSET 0.007014 -4.693133 9.886524
						CHANNELS 3 Xrotation Yrotation Zrotation
						End Site
						{
							OFFSET 0.000000 0.000000 0.000000
						}
					}
				}
			}
		}
		JOINT R_legUpper0001_bind_JNT
		{
			OFFSET -6.599999 -6.027000 0.539000
			CHANNELS 3 Xrotation Yrotation Zrotation
			JOINT R_legLower0001_bind_JNT
			{
				OFFSET 0.140710 -19.187164 0.040550
				CHANNELS 3 Xrotation Yrotation Zrotation
				JOINT R_foot0001_bind_JNT
				{
					OFFSET 0.132215 -18.028633 -1.138362
					CHANNELS 3 Xrotation Yrotation Zrotation
					JOINT R_foot0002_bind_JNT
					{
						OFFSET -0.007014 -4.693128 9.886505
						CHANNELS 3 Xrotation Yrotation Zrotation
						End Site
						{
							OFFSET 0.000000 0.000000 0.000000
						}
					}
				}
			}
		}
	}
}
MOTION
Frames: 14
Frame Time: 0.033333
7.770291 46.719955 59.562553 0.039340 -3.433308 -0.054323 14.540045 -2.405551 -3.433328 -0.652389 -4.811779 1.442727 8.696775 -2.944994 -0.262522 15.743983 2.629550 -0.120387 0.203594 -0.396381 0.206858 -7.643774 4.293558 2.064185 8.785415 -3.175236 15.208990 -57.530243 -28.142427 -81.622124 11.965296 -32.163853 -20.908142 12.471622 -6.658970 -35.134064 11.037681 8.185564 -9.339158 -9.401967 13.418928 65.124298 20.877827 -0.646723 3.646970 1.518791 14.393018 32.009186 9.832881 5.788043 -3.473920 -19.091856 1.225275 -1.622114 41.116920 -1.871453 -2.434014 -23.105829 2.309727 5.432684 -9.027331 0.274161 1.228502 -44.218651 -5.385175 0.564250 34.199215 1.824102 0.657343 -5.580293 2.997833 3.278427 -1.295437 0.445819 0.354371 
7.599217 46.160904 60.487747 0.042179 -3.422065 -0.048491 15.525977 -2.041957 -2.707747 -0.644229 -4.750487 1.591459 8.945045 -2.959454 0.095804 15.826409 2.520206 -0.183514 0.313473 -0.370569 0.043492 -7.631032 4.272452 1.936842 8.969503 -2.343081 14.843734 -55.335869 -28.860798 -80.104942 12.353786 -29.647896 -19.064093 12.940734 -7.945452 -32.650738 11.046527 7.758754 -9.260047 -9.948109 13.772568 65.379852 20.199081 0.022261 3.750487 2.156172 14.076058 31.444540 10.525351 6.292626 -3.057976 -19.697416 1.111179 -1.896721 43.597385 -2.009629 -2.647472 -25.151308 2.279814 5.133494 -9.551170 0.372472 1.434131 -45.805149 -5.289719 0.464193 38.140652 2.072442 0.295767 -5.203713 3.169091 1.807425 -1.733038 0.375132 -0.141212 
7.312119 45.626640 61.361195 0.034360 -3.412522 -0.052695 16.055595 -1.825171 -2.243958 -0.611890 -4.740226 1.757231 9.221397 -2.877352 0.447043 15.707851 2.471291 -0.125978 0.128862 -0.446070 -0.093460 -7.576474 4.089305 1.752206 9.437743 -1.515893 14.892319 -53.228455 -28.157938 -79.000610 13.448410 -26.734926 -16.498272 12.784649 -8.618095 -30.049316 11.471611 7.309206 -9.470757 -10.762800 14.161606 65.676308 19.613487 0.152404 3.343565 2.137440 13.772778 31.694059 10.837678 6.498128 -2.748504 -20.150724 1.303549 -2.027973 45.928642 -2.068740 -2.900739 -26.600973 2.165113 5.163815 -10.183277 -0.035601 1.557216 -46.448086 -5.373183 0.795062 41.162987 2.769304 0.170701 -5.404970 2.555613 0.189386 -2.270313 0.262345 -0.423211 
7.050351 45.015293 62.258018 0.034735 -3.109454 -0.060234 16.512133 -2.056710 -1.780768 -0.216312 -4.635893 1.817669 9.432961 -2.599319 1.002738 15.749055 2.459505 -0.313164 0.117164 -0.436825 0.026910 -7.911847 4.317176 1.440527 9.903803 -0.519234 14.819964 -51.652809 -27.454641 -78.115570 15.378347 -22.485483 -13.091866 11.587990 -10.324714 -28.061316 11.665005 6.660095 -9.620316 -11.818930 14.376942 65.251457 18.013853 0.575237 3.339914 3.102359 13.465449 31.489090 11.407545 6.084733 -2.248269 -20.382412 1.540529 -1.998541 47.811672 -2.376169 -2.762395 -27.850109 1.925364 4.581672 -11.215488 0.102518 2.068726 -47.271748 -5.363217 0.854049 43.847618 3.055929 -0.089362 -6.814078 1.746876 -0.821180 -2.261677 0.231606 -0.624137 
6.739480 44.630661 63.125061 0.029235 -3.224729 -0.052712 17.048933 -2.120343 -1.289769 -0.229143 -4.584610 1.877819 9.706573 -2.523165 1.252771 15.541483 2.446608 -0.351709 0.049384 -0.323763 -0.293539 -8.013789 4.367248 1.172810 10.009912 0.465617 14.517779 -50.036167 -26.216370 -77.389626 17.414225 -17.225466 -9.719158 10.711934 -11.577147 -26.909012 11.944360 6.173251 -9.815854 -12.809508 14.594117 64.992882 17.036770 0.651608 3.251378 3.413556 13.453364 31.131489 11.790887 6.011436 -2.242212 -20.721027 2.001878 -1.713124 49.733414 -2.492146 -2.490873 -27.930605 1.865306 4.092389 -13.020053 -0.379629 2.468750 -48.015984 -5.961791 1.109985 46.526222 3.031118 -0.006732 -8.951190 1.450013 -1.687275 -2.383045 0.136297 -0.635199 
6.380907 44.270489 64.031189 0.023303 -3.189717 -0.057743 17.658564 -2.142534 -0.520543 -0.094726 -4.366564 1.874618 9.701489 -2.522444 1.270911 15.578206 2.375938 -0.380090 -0.002630 -0.273897 -0.212783 -8.015902 4.314166 0.774314 10.399103 1.410980 13.933087 -48.225704 -24.986776 -75.418602 19.025360 -12.364600 -6.882263 9.579206 -12.123976 -26.306532 12.066636 5.696438 -9.670364 -13.589874 14.490188 64.218788 15.014020 1.285595 3.118994 3.973198 12.894577 30.470152 12.481301 5.758841 -1.778412 -20.823523 2.150203 -1.479018 50.585716 -2.771817 -2.272094 -27.651413 1.769868 3.444077 -14.535587 -0.542694 2.543120 -48.810623 -5.910954 1.508743 49.091007 3.178293 -0.316148 -11.398195 0.916632 -2.214609 -2.344639 0.185756 -0.682621 
6.010943 44.039017 64.726570 0.029502 -3.247593 -0.040090 18.146002 -2.065593 0.030675 -0.263770 -4.360561 1.631265 10.025417 -2.413697 1.288467 15.205052 2.369796 -0.342880 0.110494 -0.323309 -0.231129 -8.171208 4.231229 0.495781 10.028066 2.249317 13.999427 -45.706829 -23.190813 -73.090591 19.560652 -8.371478 -4.354412 7.855406 -12.147829 -25.788986 12.006325 4.983233 -9.580647 -14.519360 14.278136 63.771698 13.304301 1.291912 2.338871 3.848234 13.052194 29.865038 12.848692 5.601404 -1.703224 -21.240294 2.194279 -1.122507 51.845863 -2.719056 -2.215137 -26.843401 2.028919 3.032294 -16.331184 -0.535937 2.191373 -48.903900 -6.261896 1.520217 49.471870 3.401873 0.092888 -12.033150 0.998132 -2.824178 -2.159864 0.277968 -0.829061 
5.662943 43.949821 65.442352 0.019541 -3.247216 -0.052899 18.810577 -2.113587 0.747134 -0.040931 -4.187796 1.361865 10.032775 -2.224454 1.285647 14.968059 2.221235 -0.408697 0.114212 -0.337367 -0.171093 -8.569524 4.150940 0.380892 10.327070 3.257228 13.692345 -43.207157 -21.668880 -69.378548 18.449972 -5.594024 -2.026553 7.047112 -12.048256 -26.077793 11.821336 3.642338 -9.403219 -15.365060 14.021957 62.283882 11.377302 1.694918 1.914506 3.295892 13.301951 28.769756 13.786215 5.194302 -1.440878 -22.347803 2.117813 -0.685481 52.571941 -2.768923 -2.583374 -25.532688 1.919796 2.352316 -17.953083 -0.377493 1.968682 -49.245613 -6.474104 1.842072 49.920822 3.956528 -0.222039 -12.960336 0.755443 -3.373021 -1.979051 0.237576 -0.829704 
5.249340 43.865723 66.082123 0.028269 -3.493680 -0.039803 19.763304 -1.779544 1.041687 -0.371884 -4.192393 1.333393 9.945790 -2.225030 1.461059 14.753939 2.109672 -0.448518 0.169406 -0.536876 -0.153343 -8.822632 3.890768 0.104018 10.128268 4.418914 13.663345 -40.162338 -19.520950 -65.890686 17.056461 -3.575739 -0.321034 7.167725 -12.298429 -26.230532 11.560164 2.457611 -9.341886 -15.934518 12.914882 60.230633 9.656843 1.940877 1.108653 2.704146 14.114126 28.524469 14.714009 5.521517 -1.208315 -24.001060 2.145261 -0.709303 54.256531 -2.496996 -2.546159 -24.024067 2.000921 1.442815 -20.117556 -0.373558 1.779815 -49.216892 -7.025511 1.589856 49.462048 4.072315 -0.136426 -13.228891 1.212683 -3.853945 -2.099415 0.190600 -1.010288 
4.932753 44.008751 66.737793 0.027975 -3.935839 -0.050031 21.140556 -1.225751 1.772948 -0.347879 -4.015245 1.329665 9.878055 -2.232239 1.491043 14.506173 1.931286 -0.911463 -0.215594 -0.500949 0.076121 -9.225326 3.814033 -0.462512 9.868885 5.548846 13.310592 -36.893803 -17.089745 -61.263241 15.501663 -3.081046 0.771306 7.617446 -12.238477 -27.239710 10.973606 0.669507 -9.248369 -16.691324 11.791773 57.139923 7.346889 2.187080 1.275601 2.579574 15.037256 27.871578 16.317541 5.527946 -0.850162 -26.636995 2.021872 -0.069051 56.202820 -2.232782 -3.072723 -21.546452 1.849751 -0.370799 -23.051361 -0.199933 2.068732 -49.780155 -7.339892 1.797730 49.220154 4.548618 -0.079764 -13.808889 0.976746 -4.649523 -2.021179 0.294082 -1.269502 
4.660645 44.142776 67.363930 0.022938 -4.379172 -0.032809 22.364561 -0.552692 2.071579 -0.753445 -3.976153 1.131258 9.889027 -2.110664 1.545928 14.095122 1.738898 -0.943070 0.034667 -0.509392 0.035048 -10.046397 3.520921 -0.761950 9.392692 6.370975 13.407177 -33.514824 -14.073335 -57.569565 14.310654 -2.239885 2.106076 7.678772 -11.967530 -27.973938 10.079768 -0.634167 -8.976701 -17.762167 10.212926 53.423969 5.966796 1.452040 1.283307 2.966244 15.543906 27.974401 17.699129 5.871925 -0.620564 -29.824392 1.801050 0.049895 59.058060 -1.687242 -2.977417 -18.547926 1.696699 -2.695047 -26.034327 -0.589713 2.516858 -49.804939 -7.936677 1.397136 48.194515 4.992562 -0.122805 -13.747478 1.182443 -5.009790 -2.198897 0.126284 -1.444094 
4.362977 44.501163 67.957535 0.023089 -4.717532 -0.049718 23.559103 0.057343 2.410493 -0.746135 -3.738027 1.095770 9.668678 -2.033280 1.603181 13.898269 1.508936 -1.123785 -0.239059 -0.544165 0.065082 -10.534938 2.966308 -1.169589 8.576933 7.339991 13.457523 -30.763990 -11.083397 -54.447872 12.686237 -0.529163 3.568010 7.604814 -11.169318 -28.122471 9.319465 -2.167709 -8.779982 -19.092690 9.231178 50.199291 4.208600 0.305847 1.181319 3.284733 14.551734 27.061707 18.980070 5.826998 -0.362529 -32.861382 1.513604 0.387531 61.265305 -1.381405 -3.384247 -14.026701 0.890004 -4.402044 -28.331533 -0.249522 2.943063 -49.714699 -8.487761 1.472112 47.122021 5.262749 -0.291778 -13.863879 1.188297 -5.465340 -2.278022 0.396373 -1.610328 
4.036358 44.704838 68.482529 0.029472 -5.076088 -0.033679 24.583960 0.717100 2.454657 -0.925020 -3.491507 1.171051 9.525925 -1.828558 1.597245 13.613569 1.205441 -1.210012 -0.108365 -0.715493 -0.016839 -11.255466 2.563057 -1.164019 8.062187 8.183903 13.811872 -29.063786 -7.741924 -52.396255 10.379958 1.551561 5.033022 7.807342 -10.923089 -27.182367 8.435336 -3.407173 -8.957543 -20.240360 7.937007 47.280716 3.495445 -0.917256 0.726717 3.503127 13.481296 26.543350 19.931934 6.005304 -0.333923 -35.425056 1.188488 0.450441 63.887081 -0.647832 -3.754256 -10.306850 0.175103 -5.345539 -28.728085 -0.244728 2.633713 -49.432602 -8.777977 1.714529 46.231792 5.386901 -0.521135 -14.201367 1.438439 -5.628941 -2.227508 0.192149 -1.645400 
3.731825 44.937275 68.846405 0.027256 -5.052819 -0.041382 25.452141 1.188382 2.775626 -0.895765 -3.260791 1.054825 9.473319 -1.515532 1.598538 13.436956 0.894670 -1.100153 -0.328428 -0.515260 -0.114326 -11.715722 1.685453 -1.559295 7.342783 8.729007 14.374188 -27.796059 -4.922648 -50.705368 7.556934 3.053705 5.914216 7.375989 -10.588376 -25.780401 7.693507 -4.686430 -8.970791 -21.472460 7.208106 44.556759 2.457440 -2.124949 0.518699 3.503727 11.990305 25.833025 20.777222 5.901917 -0.226952 -37.658073 0.756940 0.682229 66.128029 -0.242002 -4.179358 -7.973382 -0.215756 -5.850475 -25.270441 -0.025037 2.041668 -49.477413 -9.315507 1.904778 45.783478 5.572502 -0.676387 -14.520710 1.301112 -6.046100 -2.071507 0.329258 -1.760419 
